<svg xmlns="http://www.w3.org/2000/svg" xmlns:xlink="http://www.w3.org/1999/xlink" width="261" zoomAndPan="magnify" viewBox="0 0 195.75 78.749999" height="105" preserveAspectRatio="xMidYMid meet" version="1.0"><defs><g/><clipPath id="d60ce86708"><path d="M 0.183594 0 L 127 0 L 127 75 L 0.183594 75 Z M 0.183594 0 " clip-rule="nonzero"/></clipPath><clipPath id="f0cf6881c1"><path d="M 0.183594 25 L 20 25 L 20 44 L 0.183594 44 Z M 0.183594 25 " clip-rule="nonzero"/></clipPath><clipPath id="4cc2f9839e"><path d="M 83 23 L 108 23 L 108 47 L 83 47 Z M 83 23 " clip-rule="nonzero"/></clipPath><clipPath id="445afa9115"><path d="M 81.59375 26.433594 L 105.554688 20.878906 L 111.105469 44.839844 L 87.148438 50.390625 Z M 81.59375 26.433594 " clip-rule="nonzero"/></clipPath><clipPath id="4f29d4d0c7"><path d="M 81.59375 26.433594 L 105.554688 20.878906 L 111.105469 44.839844 L 87.148438 50.390625 Z M 81.59375 26.433594 " clip-rule="nonzero"/></clipPath><clipPath id="aea14ed376"><path d="M 81.59375 26.433594 L 105.554688 20.878906 L 111.105469 44.839844 L 87.148438 50.390625 Z M 81.59375 26.433594 " clip-rule="nonzero"/></clipPath><clipPath id="66221637a2"><rect x="0" width="127" y="0" height="75"/></clipPath></defs><g clip-path="url(#d60ce86708)"><g transform="matrix(1, 0, 0, 1, -0.000000000000000028, 0.000000000000000425)"><g clip-path="url(#66221637a2)"><g fill="#fff" fill-opacity="1"><g transform="translate(30.758654, 71.845527)"><g/></g></g><g fill="#fff" fill-opacity="1"><g transform="translate(33.943997, 71.112767)"><g/></g></g><g fill="#fff" fill-opacity="1"><g transform="translate(37.12934, 70.380007)"><g/></g></g><g fill="#fff" fill-opacity="1"><g transform="translate(40.314683, 69.647248)"><g/></g></g><g fill="#fff" fill-opacity="1"><g transform="translate(43.502996, 68.913805)"><g><path d="M 3.28125 -6.421875 L 5.328125 -6.890625 L 3.4375 -0.796875 L 1.25 -0.28125 L -0.65625 -5.515625 L 1.15625 -5.921875 L 2.515625 -1 L 2.125 -0.984375 Z M 3.28125 -6.421875 "/></g></g></g><g fill="#fff" fill-opacity="1"><g transform="translate(49.54103, 67.524809)"><g><path d="M 3.046875 -0.578125 C 2.503906 -0.460938 2.003906 -0.460938 1.546875 -0.578125 C 1.097656 -0.703125 0.722656 -0.921875 0.421875 -1.234375 C 0.128906 -1.554688 -0.0664062 -1.945312 -0.171875 -2.40625 C -0.304688 -2.988281 -0.304688 -3.546875 -0.171875 -4.078125 C -0.046875 -4.609375 0.207031 -5.066406 0.59375 -5.453125 C 0.988281 -5.847656 1.507812 -6.117188 2.15625 -6.265625 C 2.707031 -6.398438 3.207031 -6.398438 3.65625 -6.265625 C 4.101562 -6.140625 4.472656 -5.914062 4.765625 -5.59375 C 5.066406 -5.28125 5.269531 -4.894531 5.375 -4.4375 C 5.507812 -3.851562 5.507812 -3.296875 5.375 -2.765625 C 5.25 -2.242188 4.988281 -1.785156 4.59375 -1.390625 C 4.207031 -1.003906 3.691406 -0.734375 3.046875 -0.578125 Z M 2.78125 -1.890625 C 2.957031 -1.929688 3.109375 -2.023438 3.234375 -2.171875 C 3.359375 -2.328125 3.453125 -2.515625 3.515625 -2.734375 C 3.585938 -2.960938 3.625 -3.195312 3.625 -3.4375 C 3.625 -3.6875 3.597656 -3.929688 3.546875 -4.171875 C 3.492188 -4.378906 3.414062 -4.546875 3.3125 -4.671875 C 3.21875 -4.804688 3.09375 -4.898438 2.9375 -4.953125 C 2.789062 -5.003906 2.617188 -5.007812 2.421875 -4.96875 C 2.242188 -4.925781 2.09375 -4.828125 1.96875 -4.671875 C 1.851562 -4.523438 1.757812 -4.335938 1.6875 -4.109375 C 1.613281 -3.890625 1.570312 -3.65625 1.5625 -3.40625 C 1.5625 -3.15625 1.585938 -2.910156 1.640625 -2.671875 C 1.679688 -2.472656 1.753906 -2.304688 1.859375 -2.171875 C 1.960938 -2.046875 2.09375 -1.957031 2.25 -1.90625 C 2.40625 -1.851562 2.582031 -1.847656 2.78125 -1.890625 Z M 2.78125 -1.890625 "/></g></g></g><g fill="#fff" fill-opacity="1"><g transform="translate(56.11529, 66.012459)"><g><path d="M 0 0 L 0.015625 -5.65625 L 1.625 -6.03125 L 1.765625 -4.25 L 1.625 -4.390625 C 1.644531 -4.953125 1.8125 -5.421875 2.125 -5.796875 C 2.445312 -6.179688 2.851562 -6.429688 3.34375 -6.546875 C 3.726562 -6.628906 4.070312 -6.613281 4.375 -6.5 C 4.6875 -6.394531 4.925781 -6.203125 5.09375 -5.921875 C 5.257812 -5.640625 5.347656 -5.265625 5.359375 -4.796875 L 5.34375 -1.234375 L 3.515625 -0.8125 L 3.53125 -4.15625 C 3.53125 -4.445312 3.453125 -4.660156 3.296875 -4.796875 C 3.148438 -4.929688 2.945312 -4.96875 2.6875 -4.90625 C 2.488281 -4.863281 2.328125 -4.78125 2.203125 -4.65625 C 2.078125 -4.539062 1.984375 -4.378906 1.921875 -4.171875 C 1.867188 -3.972656 1.835938 -3.738281 1.828125 -3.46875 L 1.828125 -0.421875 Z M 0 0 "/></g></g></g><g fill="#fff" fill-opacity="1"><g transform="translate(62.807513, 64.472973)"><g/></g></g><g fill="#fff" fill-opacity="1"><g transform="translate(65.992856, 63.740213)"><g><path d="M 0.15625 -0.03125 L 0.171875 -7.484375 L 2.5 -8.03125 L 3.625 -4.6875 L 4.125 -2.953125 L 4.59375 -4.90625 L 5.6875 -8.765625 L 8.328125 -9.375 L 8.3125 -1.90625 L 6.6875 -1.53125 L 6.6875 -4.96875 L 6.703125 -7.171875 L 6.6875 -7.171875 L 4.9375 -1.140625 L 3.515625 -0.8125 L 1.71875 -5.96875 L 1.703125 -5.96875 L 1.78125 -3.84375 L 1.78125 -0.40625 Z M 0.15625 -0.03125 "/></g></g></g><g fill="#fff" fill-opacity="1"><g transform="translate(75.827332, 61.477879)"><g><path d="M 3.046875 -0.609375 C 2.515625 -0.484375 2.023438 -0.472656 1.578125 -0.578125 C 1.128906 -0.691406 0.75 -0.90625 0.4375 -1.21875 C 0.132812 -1.53125 -0.0703125 -1.929688 -0.1875 -2.421875 C -0.320312 -3.023438 -0.316406 -3.585938 -0.171875 -4.109375 C -0.0234375 -4.628906 0.238281 -5.078125 0.625 -5.453125 C 1.019531 -5.835938 1.53125 -6.101562 2.15625 -6.25 C 2.6875 -6.375 3.15625 -6.378906 3.5625 -6.265625 C 3.96875 -6.148438 4.304688 -5.9375 4.578125 -5.625 C 4.859375 -5.320312 5.054688 -4.925781 5.171875 -4.4375 C 5.203125 -4.289062 5.226562 -4.140625 5.25 -3.984375 C 5.269531 -3.835938 5.269531 -3.6875 5.25 -3.53125 L 1.03125 -2.5625 L 0.8125 -3.546875 L 3.84375 -4.234375 L 3.40625 -3.84375 C 3.414062 -3.957031 3.414062 -4.050781 3.40625 -4.125 C 3.394531 -4.195312 3.378906 -4.257812 3.359375 -4.3125 C 3.316406 -4.507812 3.25 -4.660156 3.15625 -4.765625 C 3.0625 -4.867188 2.953125 -4.9375 2.828125 -4.96875 C 2.703125 -5.007812 2.554688 -5.015625 2.390625 -4.984375 C 2.140625 -4.921875 1.945312 -4.8125 1.8125 -4.65625 C 1.675781 -4.5 1.578125 -4.304688 1.515625 -4.078125 C 1.453125 -3.859375 1.425781 -3.628906 1.4375 -3.390625 C 1.457031 -3.148438 1.492188 -2.921875 1.546875 -2.703125 C 1.597656 -2.472656 1.6875 -2.289062 1.8125 -2.15625 C 1.9375 -2.019531 2.082031 -1.925781 2.25 -1.875 C 2.425781 -1.832031 2.625 -1.835938 2.84375 -1.890625 C 3.09375 -1.941406 3.28125 -2.039062 3.40625 -2.1875 C 3.539062 -2.34375 3.632812 -2.523438 3.6875 -2.734375 L 5.3125 -2.484375 C 5.25 -2.191406 5.113281 -1.914062 4.90625 -1.65625 C 4.695312 -1.40625 4.429688 -1.1875 4.109375 -1 C 3.796875 -0.820312 3.441406 -0.691406 3.046875 -0.609375 Z M 3.046875 -0.609375 "/></g></g></g><g fill="#fff" fill-opacity="1"><g transform="translate(82.208547, 60.009938)"><g><path d="M 1.96875 -0.359375 C 1.320312 -0.210938 0.828125 -0.28125 0.484375 -0.5625 C 0.148438 -0.851562 -0.015625 -1.316406 -0.015625 -1.953125 L 0 -8.046875 L 1.8125 -8.46875 L 1.8125 -2.390625 C 1.8125 -2.140625 1.867188 -1.96875 1.984375 -1.875 C 2.097656 -1.78125 2.265625 -1.757812 2.484375 -1.8125 C 2.578125 -1.832031 2.65625 -1.847656 2.71875 -1.859375 C 2.78125 -1.878906 2.832031 -1.90625 2.875 -1.9375 L 2.8125 -0.671875 C 2.71875 -0.597656 2.597656 -0.535156 2.453125 -0.484375 C 2.316406 -0.441406 2.15625 -0.398438 1.96875 -0.359375 Z M 1.96875 -0.359375 "/></g></g></g><g fill="#fff" fill-opacity="1"><g transform="translate(85.865771, 59.168626)"><g/></g></g><g fill="#fff" fill-opacity="1"><g transform="translate(89.051114, 58.435866)"><g><path d="M 1.265625 -0.1875 C 0.960938 -0.125 0.703125 -0.140625 0.484375 -0.234375 C 0.273438 -0.335938 0.140625 -0.523438 0.078125 -0.796875 C 0.00390625 -1.128906 0.046875 -1.421875 0.203125 -1.671875 C 0.359375 -1.921875 0.609375 -2.082031 0.953125 -2.15625 C 1.242188 -2.226562 1.492188 -2.210938 1.703125 -2.109375 C 1.921875 -2.015625 2.0625 -1.832031 2.125 -1.5625 C 2.195312 -1.226562 2.15625 -0.9375 2 -0.6875 C 1.851562 -0.4375 1.609375 -0.269531 1.265625 -0.1875 Z M 1.265625 -4.609375 C 0.960938 -4.535156 0.703125 -4.546875 0.484375 -4.640625 C 0.265625 -4.742188 0.128906 -4.929688 0.078125 -5.203125 C -0.00390625 -5.535156 0.03125 -5.828125 0.1875 -6.078125 C 0.34375 -6.328125 0.59375 -6.488281 0.9375 -6.5625 C 1.226562 -6.632812 1.484375 -6.617188 1.703125 -6.515625 C 1.921875 -6.421875 2.054688 -6.238281 2.109375 -5.96875 C 2.191406 -5.632812 2.15625 -5.34375 2 -5.09375 C 1.851562 -4.84375 1.609375 -4.679688 1.265625 -4.609375 Z M 1.265625 -4.609375 "/></g></g></g><g fill="#fff" fill-opacity="1"><g transform="translate(92.365158, 57.6735)"><g><path d="M 0.359375 -8.40625 C 0.941406 -7.957031 1.4375 -7.421875 1.84375 -6.796875 C 2.25 -6.171875 2.546875 -5.460938 2.734375 -4.671875 C 2.867188 -4.035156 2.914062 -3.40625 2.875 -2.78125 C 2.84375 -2.164062 2.722656 -1.5625 2.515625 -0.96875 C 2.316406 -0.382812 2.039062 0.160156 1.6875 0.671875 C 1.332031 1.191406 0.898438 1.660156 0.390625 2.078125 L -0.453125 1.375 C 0.0546875 0.800781 0.453125 0.203125 0.734375 -0.421875 C 1.023438 -1.046875 1.191406 -1.707031 1.234375 -2.40625 C 1.285156 -3.101562 1.222656 -3.828125 1.046875 -4.578125 C 0.910156 -5.171875 0.710938 -5.695312 0.453125 -6.15625 C 0.203125 -6.613281 -0.0976562 -7.019531 -0.453125 -7.375 Z M 0.359375 -8.40625 "/></g></g></g><g clip-path="url(#f0cf6881c1)"><g fill="#fff" fill-opacity="1"><g transform="translate(4.118035, 43.56212)"><g><path d="M 0.296875 -0.078125 L 0.1875 -15.546875 L 11.625 -18.28125 L 11.625 -15.15625 L 4.046875 -13.34375 L 4.0625 -10.203125 L 10.03125 -11.640625 L 10.0625 -8.703125 L 4.09375 -7.265625 L 4.109375 -4.109375 L 11.9375 -5.984375 L 11.953125 -2.859375 Z M 0.296875 -0.078125 "/></g></g></g></g><g fill="#fff" fill-opacity="1"><g transform="translate(18.472274, 40.127094)"><g><path d="M 0.296875 -0.078125 L 0.1875 -15.546875 L 6.484375 -17.046875 C 7.992188 -17.410156 9.273438 -17.328125 10.328125 -16.796875 C 11.390625 -16.273438 12.078125 -15.359375 12.390625 -14.046875 C 12.648438 -12.984375 12.617188 -12.019531 12.296875 -11.15625 C 11.984375 -10.300781 11.453125 -9.566406 10.703125 -8.953125 C 9.953125 -8.347656 9.050781 -7.894531 8 -7.59375 L 7.21875 -7.203125 L 3.703125 -6.375 L 3.671875 -9.21875 L 6.578125 -9.921875 C 7.148438 -10.054688 7.609375 -10.265625 7.953125 -10.546875 C 8.304688 -10.835938 8.539062 -11.179688 8.65625 -11.578125 C 8.78125 -11.972656 8.796875 -12.378906 8.703125 -12.796875 C 8.566406 -13.367188 8.273438 -13.738281 7.828125 -13.90625 C 7.378906 -14.082031 6.851562 -14.097656 6.25 -13.953125 L 3.984375 -13.40625 L 4.078125 -0.96875 Z M 9.796875 -2.34375 L 5.890625 -8.125 L 9.21875 -9.484375 L 13.65625 -3.265625 Z M 9.796875 -2.34375 "/></g></g></g><g fill="#fff" fill-opacity="1"><g transform="translate(33.959722, 36.420886)"><g><path d="M 7.4375 -1.515625 C 6.394531 -1.265625 5.378906 -1.164062 4.390625 -1.21875 C 3.410156 -1.28125 2.488281 -1.488281 1.625 -1.84375 C 0.769531 -2.195312 -0.0078125 -2.722656 -0.71875 -3.421875 L 1 -6.15625 C 1.507812 -5.625 2.082031 -5.203125 2.71875 -4.890625 C 3.363281 -4.585938 4.03125 -4.398438 4.71875 -4.328125 C 5.40625 -4.265625 6.070312 -4.3125 6.71875 -4.46875 C 7.164062 -4.570312 7.515625 -4.722656 7.765625 -4.921875 C 8.023438 -5.128906 8.203125 -5.363281 8.296875 -5.625 C 8.398438 -5.882812 8.421875 -6.140625 8.359375 -6.390625 C 8.285156 -6.722656 8.101562 -6.953125 7.8125 -7.078125 C 7.53125 -7.203125 7.140625 -7.28125 6.640625 -7.3125 L 4.265625 -7.515625 C 3.535156 -7.554688 2.859375 -7.695312 2.234375 -7.9375 C 1.609375 -8.175781 1.078125 -8.519531 0.640625 -8.96875 C 0.203125 -9.425781 -0.0976562 -10.007812 -0.265625 -10.71875 C -0.503906 -11.707031 -0.453125 -12.609375 -0.109375 -13.421875 C 0.234375 -14.242188 0.804688 -14.945312 1.609375 -15.53125 C 2.421875 -16.125 3.40625 -16.5625 4.5625 -16.84375 C 6.09375 -17.207031 7.445312 -17.242188 8.625 -16.953125 C 9.800781 -16.660156 10.851562 -16.109375 11.78125 -15.296875 L 9.953125 -12.609375 C 9.515625 -13.046875 9.035156 -13.378906 8.515625 -13.609375 C 8.003906 -13.835938 7.46875 -13.96875 6.90625 -14 C 6.351562 -14.039062 5.804688 -14 5.265625 -13.875 C 4.828125 -13.757812 4.472656 -13.609375 4.203125 -13.421875 C 3.941406 -13.242188 3.765625 -13.035156 3.671875 -12.796875 C 3.578125 -12.554688 3.5625 -12.304688 3.625 -12.046875 C 3.695312 -11.753906 3.90625 -11.519531 4.25 -11.34375 C 4.59375 -11.164062 5.019531 -11.054688 5.53125 -11.015625 L 7.90625 -10.84375 C 9.101562 -10.757812 10.0625 -10.476562 10.78125 -10 C 11.507812 -9.519531 11.988281 -8.785156 12.21875 -7.796875 C 12.46875 -6.773438 12.414062 -5.835938 12.0625 -4.984375 C 11.707031 -4.140625 11.125 -3.414062 10.3125 -2.8125 C 9.507812 -2.207031 8.550781 -1.773438 7.4375 -1.515625 Z M 7.4375 -1.515625 "/></g></g></g><g fill="#fff" fill-opacity="1"><g transform="translate(48.625037, 32.911418)"><g><path d="M 12.453125 -18.484375 L 12.484375 -15.359375 L 7.75 -14.234375 L 7.84375 -1.875 L 4.03125 -0.96875 L 3.9375 -13.3125 L -0.84375 -12.171875 L -0.875 -15.28125 Z M 12.453125 -18.484375 "/></g></g></g><g fill="#fff" fill-opacity="1"><g transform="translate(63.468114, 29.35941)"><g><path d="M 0.296875 -0.078125 L 0.1875 -15.546875 L 11.625 -18.28125 L 11.625 -15.15625 L 4.046875 -13.34375 L 4.0625 -10.203125 L 10.03125 -11.640625 L 10.0625 -8.703125 L 4.09375 -7.265625 L 4.109375 -4.109375 L 11.9375 -5.984375 L 11.953125 -2.859375 Z M 0.296875 -0.078125 "/></g></g></g><g fill="#fff" fill-opacity="1"><g transform="translate(77.822353, 25.924383)"><g><path d="M 4.109375 -4.109375 L 11.515625 -5.875 L 11.53125 -2.765625 L 0.296875 -0.078125 L 0.1875 -15.546875 L 4.015625 -16.453125 Z M 4.109375 -4.109375 "/></g></g></g><g fill="#fff" fill-opacity="1"><g transform="translate(91.665534, 22.611655)"><g><path d="M 4.109375 -4.109375 L 11.515625 -5.875 L 11.53125 -2.765625 L 0.296875 -0.078125 L 0.1875 -15.546875 L 4.015625 -16.453125 Z M 4.109375 -4.109375 "/></g></g></g><g fill="#fff" fill-opacity="1"><g transform="translate(105.508716, 19.298926)"><g><path d="M 12.453125 -18.484375 L 12.484375 -15.359375 L 7.75 -14.234375 L 7.84375 -1.875 L 4.03125 -0.96875 L 3.9375 -13.3125 L -0.84375 -12.171875 L -0.875 -15.28125 Z M 12.453125 -18.484375 "/></g></g></g><g fill="#fff" fill-opacity="1"><g transform="translate(27.655144, 56.370436)"><g><path d="M 0.3125 -0.0625 L 0.390625 -15.546875 L 5.21875 -16.640625 L 7.546875 -9.671875 L 8.578125 -6.09375 L 8.609375 -6.09375 L 9.5625 -10.125 L 11.859375 -18.140625 L 17.328125 -19.375 L 17.25 -3.890625 L 13.859375 -3.125 L 13.890625 -10.234375 L 13.953125 -14.8125 L 13.921875 -14.796875 L 10.25 -2.3125 L 7.3125 -1.65625 L 3.625 -12.375 L 3.578125 -12.375 L 3.734375 -7.9375 L 3.703125 -0.84375 Z M 0.3125 -0.0625 "/></g></g></g><g fill="#fff" fill-opacity="1"><g transform="translate(48.247082, 51.717505)"><g><path d="M 4.234375 -16.40625 L 4.140625 -0.9375 L 0.3125 -0.0625 L 0.390625 -15.546875 Z M 4.234375 -16.40625 "/></g></g></g><g fill="#fff" fill-opacity="1"><g transform="translate(55.735155, 50.025508)"><g><path d="M 12.6875 -18.328125 L 12.671875 -15.203125 L 7.921875 -14.125 L 7.859375 -1.78125 L 4.03125 -0.90625 L 4.09375 -13.265625 L -0.6875 -12.171875 L -0.671875 -15.296875 Z M 12.6875 -18.328125 "/></g></g></g><g fill="#fff" fill-opacity="1"><g transform="translate(70.249606, 46.745838)"><g/></g></g><g fill="#fff" fill-opacity="1"><g transform="translate(77.024544, 45.214981)"><g/></g></g><g fill="#fff" fill-opacity="1"><g transform="translate(83.799482, 43.684123)"><g/></g></g><g fill="#fff" fill-opacity="1"><g transform="translate(90.57442, 42.153266)"><g/></g></g><g fill="#fff" fill-opacity="1"><g transform="translate(97.349357, 40.622408)"><g/></g></g><g fill="#fff" fill-opacity="1"><g transform="translate(104.124295, 39.091551)"><g/></g></g><g fill="#fff" fill-opacity="1"><g transform="translate(110.899233, 37.560693)"><g/></g></g><g fill="#fff" fill-opacity="1"><g transform="translate(117.67417, 36.029836)"><g/></g></g><g clip-path="url(#4cc2f9839e)"><g clip-path="url(#445afa9115)"><g clip-path="url(#4f29d4d0c7)"><g clip-path="url(#aea14ed376)"><path fill="#fff" d="M 86.316406 38.34375 L 98.78125 46.117188 L 106.554688 33.65625 C 107.46875 32.1875 107.761719 30.414062 107.375 28.730469 L 107.308594 28.445312 C 106.53125 25.09375 103.183594 23.007812 99.832031 23.785156 C 97.988281 24.210938 96.441406 25.453125 95.621094 27.160156 L 94.789062 28.898438 L 93.277344 27.703125 C 91.789062 26.53125 89.851562 26.097656 88.011719 26.523438 C 84.660156 27.300781 82.570312 30.648438 83.347656 34 L 83.414062 34.285156 C 83.804688 35.96875 84.847656 37.429688 86.316406 38.34375 Z M 86.316406 38.34375 " fill-opacity="1" fill-rule="nonzero"/></g></g></g></g></g></g></g></svg>